<?xml version="1.0" encoding="utf-8"?><svg viewBox="0 0 33 32" xmlns="http://www.w3.org/2000/svg" xmlns:xlink="http://www.w3.org/1999/xlink"><style>:root>svg{display:none}:root>svg:target{display:block}</style><svg fill="none" viewBox="0 0 16 17" id="add" xmlns="http://www.w3.org/2000/svg"><path fill-rule="evenodd" clip-rule="evenodd" d="M16 9.318H0v-2h16v2z" fill="#0F0F0F"/><path fill-rule="evenodd" clip-rule="evenodd" d="M7 16.318v-16h2v16H7z" fill="#0F0F0F"/></svg><svg fill="none" viewBox="0 0 26 21" id="check" xmlns="http://www.w3.org/2000/svg"><path fill-rule="evenodd" clip-rule="evenodd" d="M25.391.63l-15.905 20a.5.5 0 01-.798-.021L.593 9.29l.814-.582 7.709 10.78L24.609.006l.782.622z" fill="#0F0F0F"/></svg><svg fill="none" viewBox="0 0 32 32" id="cloud" xmlns="http://www.w3.org/2000/svg"><path fill-rule="evenodd" clip-rule="evenodd" d="M26.022 28.672H7.712v2.03h18.31c3.336 0 5.978-2.96 5.978-6.506 0-3.018-1.878-5.615-4.546-6.32C27.074 13.497 23.69 10 19.508 10c-2.76 0-5.306 1.58-6.748 4.069a3.696 3.696 0 00-1.27-.225c-1.297 0-2.482.688-3.214 1.78a6.451 6.451 0 00-1.296-.132c-3.888 0-6.98 3.453-6.98 7.605 0 4.153 3.092 7.606 6.98 7.606h.602v-2.03H6.98c-2.742 0-5.046-2.461-5.046-5.576 0-3.114 2.304-5.575 5.046-5.575.501 0 .997.082 1.476.243l.835.282.348-.844c.342-.827 1.079-1.328 1.851-1.328.4 0 .787.128 1.123.377l.955.707.484-1.117c1.008-2.334 3.16-3.812 5.456-3.812 3.296 0 6.048 2.955 6.049 6.646l-.004.97.869.095c2.044.222 3.644 2.105 3.644 4.455 0 2.51-1.854 4.476-4.044 4.476z" fill="#fff"/><path fill-rule="evenodd" clip-rule="evenodd" d="M14.559 3.796c-1.913.27-4.075 1.851-5.23 5.841l-.308 1.064-1.027-.414c-1.379-.557-2.761-.281-3.56.56-.772.814-1.27 2.459-.2 5.206l-1.865.725c-1.232-3.169-.88-5.731.614-7.307 1.221-1.287 3.02-1.707 4.734-1.35 1.387-3.882 3.864-5.925 6.562-6.306 2.544-.358 5.042.808 6.572 2.884 1.629-.735 3.179-.87 4.542-.538a5.795 5.795 0 013.587 2.633c.75 1.238 1.035 2.754.64 4.183-.401 1.456-1.478 2.714-3.235 3.446l-.77-1.846c1.243-.518 1.854-1.322 2.077-2.132.231-.837.078-1.79-.422-2.614a3.795 3.795 0 00-2.35-1.727c-1.028-.25-2.36-.129-3.924.764l-.879.502-.491-.884c-1.068-1.922-3.1-2.967-5.068-2.69z" fill="#fff"/></svg><svg fill="none" viewBox="0 0 24 24" id="exit" xmlns="http://www.w3.org/2000/svg"><path d="M15 2H2v20h13v2H2a2 2 0 01-2-2V2a2 2 0 012-2h13v2zM22.451 11.04c.732.472.732 1.448 0 1.92l-4.354 2.814c-.875.565-2.097.006-2.097-.96V9.186c0-.966 1.222-1.526 2.097-.96l4.354 2.813z" fill="#0F0F0F"/><path d="M5 11h12v2H5v-2z" fill="#0F0F0F"/></svg><svg fill="none" viewBox="0 0 24 25" id="eye" xmlns="http://www.w3.org/2000/svg"><path d="M14.12 14.802a3 3 0 11-4.24-4.24m8.06 8.06a10.07 10.07 0 01-5.94 2.06c-7 0-11-8-11-8a18.45 18.45 0 015.06-5.94l11.88 11.88zM9.9 4.922a9.12 9.12 0 012.1-.24c7 0 11 8 11 8a18.494 18.494 0 01-2.16 3.19L9.9 4.922zM1 1.682l22 22" stroke="#0F0F0F" stroke-width="2" stroke-linecap="round" stroke-linejoin="round"/></svg><svg fill="none" viewBox="0 0 32 32" id="instructions" xmlns="http://www.w3.org/2000/svg"><path fill-rule="evenodd" clip-rule="evenodd" d="M30 4H2v24h28V4zM2 2a2 2 0 00-2 2v24a2 2 0 002 2h28a2 2 0 002-2V4a2 2 0 00-2-2H2z" fill="#fff"/><rect x="11" y="15" width="16" height="2" rx="1" fill="#fff"/><rect x="11" y="10" width="16" height="2" rx="1" fill="#fff"/><rect x="11" y="20" width="11.733" height="2" rx="1" fill="#fff"/><rect x="5" y="15" width="3" height="2" rx="1" fill="#fff"/><rect x="5" y="10" width="3" height="2" rx="1" fill="#fff"/><rect x="5" y="20" width="3" height="2" rx="1" fill="#fff"/></svg><svg fill="none" viewBox="0 0 33 32" id="mail" xmlns="http://www.w3.org/2000/svg"><g clip-path="url(#gclip0)"><path fill-rule="evenodd" clip-rule="evenodd" d="M.776 22.501a2.62 2.62 0 001.87.794H5.08v2.885c0 .747.292 1.464.809 1.993a2.731 2.731 0 001.95.827h21.404a2.73 2.73 0 001.95-.827A2.858 2.858 0 0032 26.179V11.525c0-.748-.292-1.464-.809-1.993a2.731 2.731 0 00-1.95-.827h-1.317V5.707c0-.718-.28-1.406-.776-1.913A2.622 2.622 0 0025.277 3H2.647a2.62 2.62 0 00-1.87.794A2.743 2.743 0 000 5.708v14.88c0 .718.28 1.406.776 1.913zM5.08 11.475v5.615l-3.111 2.817V8.694l3.111 2.78zm13.026 9.92L7.046 11.817v-.292a.82.82 0 01.232-.572.784.784 0 01.56-.237H29.24c.21 0 .411.086.56.237a.821.821 0 01.232.572v.283l-11.05 9.584-.001.001a.668.668 0 01-.877 0zM6.553 9.03c-.251.135-.48.309-.677.514L1.968 6.1v-.393c0-.185.072-.361.199-.492.127-.13.3-.203.48-.204h22.63c.18 0 .353.074.48.204.128.13.2.308.2.492v2.997H7.837c-.447 0-.888.111-1.284.325zm5.095 9.409L7.047 25.61V14.454l4.6 3.985zm-6.57 2.844H2.96l2.12-1.885v1.885zm18.83-1.524l4.668 7.229h-20.1l4.715-7.111 3.933 3.418c1.25.678 1.857.61 2.839 0l3.945-3.536zm1.622-1.37l4.502-3.934V25.61l-4.502-7.223z" fill="#fff"/></g><defs><clipPath id="gclip0"><path fill="#fff" transform="translate(.5 .333)" d="M0 0h32v32H0z"/></clipPath></defs></svg><svg fill="none" viewBox="0 0 27 27" id="pen" xmlns="http://www.w3.org/2000/svg"><g clip-path="url(#hclip0)"><path fill-rule="evenodd" clip-rule="evenodd" d="M1.192 26.907a.824.824 0 01-.954-.14.784.784 0 01-.143-.936l1.883-3.472a.866.866 0 01.017-.031l1.882-3.473.001-.001.003-.006.001-.001v-.001a.793.793 0 01.152-.194L16.93 6.037a.784.784 0 010-1.125l3.014-2.845.017-.017C20.722 1.35 21.706 1 22.69 1c1.024 0 2.048.379 2.817 1.132a3.88 3.88 0 01.42 5.033c.653.796 1.074 1.872.748 3.027-.37 1.312-1.604 2.366-3.642 3.09-1.837.652-3.166 1.445-4.06 2.18-.917.755-1.312 1.394-1.408 1.711a.891.891 0 01-1.705-.516c.24-.794.934-1.709 1.982-2.571 1.072-.882 2.587-1.77 4.595-2.484 1.808-.642 2.383-1.397 2.523-1.893.108-.383.015-.828-.296-1.266l-2.104 1.986a.823.823 0 01-1.148 0L8.515 23.045a.803.803 0 01-.223.162l-3.524 1.836a1.032 1.032 0 01-.036.02l-3.54 1.844zm23.166-23.65c-.89-.872-2.356-.897-3.276-.057l-2.43 2.274 3.333 3.268 2.43-2.274a2.297 2.297 0 00-.057-3.211zm-4.094 6.047l-2.186-2.143L5.74 19.228l2.187 2.143L20.264 9.304zM6.58 22.298L4.796 20.55 3.7 22.57l.818.802 2.06-1.074zM3.02 24.153l-.116-.114-.131.243.247-.13z" fill="#0F0F0F"/></g><defs><clipPath id="hclip0"><path fill="#fff" d="M0 0h27v27H0z"/></clipPath></defs></svg><svg fill="none" viewBox="0 0 32 32" id="phone" xmlns="http://www.w3.org/2000/svg"><path fill-rule="evenodd" clip-rule="evenodd" d="M19.267 1.006a1 1 0 00-.22 1.988 11 11 0 019.716 9.704 1 1 0 001.987-.223A13 13 0 0019.267 1.006zm.081 5.346a1 1 0 00-.383 1.963 5.666 5.666 0 014.477 4.477 1 1 0 001.963-.383 7.666 7.666 0 00-6.057-6.057zM10.987 3.22a3.667 3.667 0 00-2.421-.887C5.09 2.167 1.59 1.667 1.09 4.876c-.505 2.928 1 11.171 7.476 17.873 5.988 6.199 14.302 8.184 16.839 8.184 3.156 0 4.018-2.035 4.018-3.708v-3.987a3.667 3.667 0 00-3.153-3.708l-.01-.001a16.122 16.122 0 01-3.526-.879 3.67 3.67 0 00-3.867.826l-.004.004-1.144 1.144a20.333 20.333 0 01-6.586-6.586l1.144-1.144.004-.004a3.667 3.667 0 00.826-3.867 16.118 16.118 0 01-.879-3.527l-.001-.01a3.666 3.666 0 00-1.24-2.266zM9.683 4.736a1.667 1.667 0 00-1.103-.403H4.57a1.667 1.667 0 00-1.658 1.81A25.387 25.387 0 006.85 17.256l.005.008a25 25 0 007.692 7.692l.008.005a25.387 25.387 0 0011.06 3.937 1.668 1.668 0 001.81-1.667v-4.004-.025a1.667 1.667 0 00-1.43-1.691 18.137 18.137 0 01-3.96-.987l-.002-.001a1.667 1.667 0 00-1.757.373l-.002.002-1.69 1.69a1 1 0 01-1.2.161 22.334 22.334 0 01-8.376-8.375 1 1 0 01.163-1.201l1.69-1.691a1.667 1.667 0 00.374-1.757v-.002a18.12 18.12 0 01-.988-3.96 1.667 1.667 0 00-.563-1.027z" fill="#fff"/></svg><svg fill="none" viewBox="0 0 32 32" id="points" xmlns="http://www.w3.org/2000/svg"><circle cx="2" cy="16" r="2" fill="#fff"/><circle cx="16" cy="16" r="2" fill="#fff"/><circle cx="30" cy="16" r="2" fill="#fff"/></svg><svg fill="none" viewBox="0 0 32 32" id="promotions" xmlns="http://www.w3.org/2000/svg"><g clip-path="url(#kclip0)"><path fill-rule="evenodd" clip-rule="evenodd" d="M4.053 2.537c-.143.78.006 1.612.4 2.463H2a2 2 0 00-2 2v7h2v16a2 2 0 002 2h24a2 2 0 002-2V14h2V7a2 2 0 00-2-2h-2.083c.393-.851.541-1.683.398-2.463C28.043 1.05 26.835.265 25.553.06c-2.283-.364-5.422.891-7.783 4.007a2 2 0 00-3.375-.262C12.06.882 9.033-.292 6.815.061c-1.282.204-2.49.99-2.762 2.476zm1.964.397c-.063.344.035 1.034.784 2.066h5.935c-1.95-2.354-4.267-3.075-5.621-2.86-.78.125-1.042.489-1.098.794zM19.632 5h5.936c.749-1.032.846-1.722.783-2.066-.055-.305-.317-.67-1.097-.794-1.355-.215-3.672.506-5.622 2.86zM17 7v5h13V7H17zm11 23H17V14h11v16zm-13 0V14H4v16h11zm0-18V7H2v5h13z" fill="#fff"/></g><defs><clipPath id="kclip0"><path fill="#fff" d="M0 0h32v32H0z"/></clipPath></defs></svg><svg fill="none" viewBox="0 0 32 32" id="server" xmlns="http://www.w3.org/2000/svg"><path fill-rule="evenodd" clip-rule="evenodd" d="M30 20H2v8h28v-8zM2 18a2 2 0 00-2 2v8a2 2 0 002 2h28a2 2 0 002-2v-8a2 2 0 00-2-2H2z" fill="#fff"/><rect x="12" y="23" width="15" height="2" rx="1" fill="#fff"/><rect x="5" y="23" width="3" height="2" rx="1" fill="#fff"/><path fill-rule="evenodd" clip-rule="evenodd" d="M30 4H2v8h28V4zM2 2a2 2 0 00-2 2v8a2 2 0 002 2h28a2 2 0 002-2V4a2 2 0 00-2-2H2z" fill="#fff"/><rect x="12" y="7" width="15" height="2" rx="1" fill="#fff"/><rect x="5" y="7" width="3" height="2" rx="1" fill="#fff"/><rect x="17" y="13" width="6" height="2" rx="1" transform="rotate(90 17 13)" fill="#fff"/></svg><svg fill="none" viewBox="0 0 32 32" id="services" xmlns="http://www.w3.org/2000/svg"><path fill-rule="evenodd" clip-rule="evenodd" d="M11 4H2v9h9V4zM2 2a2 2 0 00-2 2v9a2 2 0 002 2h9a2 2 0 002-2V4a2 2 0 00-2-2H2z" fill="#fff"/><rect x="17" y="5" width="15" height="2" rx="1" fill="#fff"/><rect x="17" y="10" width="11" height="2" rx="1" fill="#fff"/><path fill-rule="evenodd" clip-rule="evenodd" d="M11 19H2v9h9v-9zm-9-2a2 2 0 00-2 2v9a2 2 0 002 2h9a2 2 0 002-2v-9a2 2 0 00-2-2H2z" fill="#fff"/><rect x="17" y="20" width="15" height="2" rx="1" fill="#fff"/><rect x="17" y="25" width="11" height="2" rx="1" fill="#fff"/></svg><svg fill="none" viewBox="0 0 24 25" id="user" xmlns="http://www.w3.org/2000/svg"><g clip-path="url(#nclip0)"><path fill="#fff" d="M0 .318h24v24H0z"/><path fill-rule="evenodd" clip-rule="evenodd" d="M12 14.318a6 6 0 100-12 6 6 0 000 12zm8-6a8 8 0 11-16 0 8 8 0 0116 0zM6.812 19.84C4.17 19.84 2 22.01 2 24.654H0c0-3.747 3.065-6.812 6.812-6.812h10.376c3.747 0 6.812 3.065 6.812 6.812h-2c0-2.642-2.17-4.812-4.812-4.812H6.812z" fill="#303030"/><path fill-rule="evenodd" clip-rule="evenodd" d="M11.925 5.043a2.283 2.283 0 00-2.686 1.791 1 1 0 01-1.962-.391 4.283 4.283 0 015.04-3.362 1 1 0 01-.393 1.962z" fill="#303030"/><path fill-rule="evenodd" clip-rule="evenodd" d="M9.15 7.808v.003l-.003.018a5.505 5.505 0 00-.025.594c.002.065.006.1.007.11 0 .004 0 .003 0 0a1 1 0 01-1.947.458c-.075-.32-.065-.715-.055-.929a8.375 8.375 0 01.03-.426l.003-.03v-.012l.986.106-.985-.106a1 1 0 011.988.214z" fill="#303030"/></g><defs><clipPath id="nclip0"><path fill="#fff" transform="translate(0 .318)" d="M0 0h24v24H0z"/></clipPath></defs></svg><svg fill="none" viewBox="0 0 32 32" id="warning" xmlns="http://www.w3.org/2000/svg"><path d="M31.696 26.948L17.998 2.178a2.258 2.258 0 00-.84-.861A2.235 2.235 0 0016 1c-.416 0-.803.106-1.16.317a2.26 2.26 0 00-.838.862L.304 26.948c-.417.739-.405 1.478.035 2.217.203.34.479.61.83.809.35.199.728.299 1.132.299h27.397c.405 0 .782-.1 1.133-.3.351-.198.627-.468.83-.808.44-.74.452-1.478.035-2.217zm-13.413-1.76a.56.56 0 01-.169.414.552.552 0 01-.401.167h-3.425a.552.552 0 01-.401-.167.557.557 0 01-.17-.413v-3.343c0-.164.057-.302.17-.413a.55.55 0 01.401-.167h3.424c.155 0 .289.055.402.167.113.111.17.25.17.413v3.343zm-.035-6.578a.394.394 0 01-.187.29.734.734 0 01-.42.114h-3.3a.777.777 0 01-.427-.114c-.12-.077-.179-.173-.179-.29l-.303-8.04c0-.164.06-.287.178-.37.155-.128.297-.193.428-.193h3.924c.131 0 .274.065.429.194a.386.386 0 01.178.334l-.32 8.075z" fill="#FFD200"/></svg></svg>