<svg width="32" height="32" fill="none" xmlns="http://www.w3.org/2000/svg"><path fill-rule="evenodd" clip-rule="evenodd" d="M26.022 28.672H7.712v2.03h18.31c3.336 0 5.978-2.96 5.978-6.506 0-3.018-1.878-5.615-4.546-6.32C27.074 13.497 23.69 10 19.508 10c-2.76 0-5.306 1.58-6.748 4.069a3.696 3.696 0 00-1.27-.225c-1.297 0-2.482.688-3.214 1.78a6.451 6.451 0 00-1.296-.132c-3.888 0-6.98 3.453-6.98 7.605 0 4.153 3.092 7.606 6.98 7.606h.602v-2.03H6.98c-2.742 0-5.046-2.461-5.046-5.576 0-3.114 2.304-5.575 5.046-5.575.501 0 .997.082 1.476.243l.835.282.348-.844c.342-.827 1.079-1.328 1.851-1.328.4 0 .787.128 1.123.377l.955.707.484-1.117c1.008-2.334 3.16-3.812 5.456-3.812 3.296 0 6.048 2.955 6.049 6.646l-.004.97.869.095c2.044.222 3.644 2.105 3.644 4.455 0 2.51-1.854 4.476-4.044 4.476z" fill="#fff"/><path fill-rule="evenodd" clip-rule="evenodd" d="M14.559 3.796c-1.913.27-4.075 1.851-5.23 5.841l-.308 1.064-1.027-.414c-1.379-.557-2.761-.281-3.56.56-.772.814-1.27 2.459-.2 5.206l-1.865.725c-1.232-3.169-.88-5.731.614-7.307 1.221-1.287 3.02-1.707 4.734-1.35 1.387-3.882 3.864-5.925 6.562-6.306 2.544-.358 5.042.808 6.572 2.884 1.629-.735 3.179-.87 4.542-.538a5.795 5.795 0 013.587 2.633c.75 1.238 1.035 2.754.64 4.183-.401 1.456-1.478 2.714-3.235 3.446l-.77-1.846c1.243-.518 1.854-1.322 2.077-2.132.231-.837.078-1.79-.422-2.614a3.795 3.795 0 00-2.35-1.727c-1.028-.25-2.36-.129-3.924.764l-.879.502-.491-.884c-1.068-1.922-3.1-2.967-5.068-2.69z" fill="#fff"/></svg>