<svg width="48" height="48" fill="none" xmlns="http://www.w3.org/2000/svg"><path d="M28.2 14.8V0H5v48h38V14.8H28.2zM31 1.16V12h10.84L31 1.16z" fill="#FFD200"/><path fill-rule="evenodd" clip-rule="evenodd" d="M14 32.667A7.333 7.333 0 1014 18a7.333 7.333 0 000 14.667zm9.333-7.334a9.333 9.333 0 11-18.667 0 9.333 9.333 0 0118.667 0zM7.947 38.444C4.681 38.444 2 41.124 2 44.39H0c0-4.371 3.576-7.947 7.947-7.947h12.106c4.37 0 7.947 3.576 7.947 7.947h-2c0-3.267-2.68-5.947-5.947-5.947H7.947z" fill="#0F0F0F"/><path fill-rule="evenodd" clip-rule="evenodd" d="M13.945 21.349a2.83 2.83 0 00-3.33 2.22 1 1 0 11-1.961-.391 4.83 4.83 0 015.682-3.79 1 1 0 11-.391 1.96z" fill="#0F0F0F"/><path fill-rule="evenodd" clip-rule="evenodd" d="M9.622 23.62a1 1 0 01.887 1.1l-.994-.107.994.108v.004l-.003.022-.008.088a8.553 8.553 0 00-.019.295 4.449 4.449 0 00-.004.332 1.79 1.79 0 00.013.162v-.002a1 1 0 01-1.947.459c-.081-.348-.07-.787-.06-1.039a9.612 9.612 0 01.034-.488l.004-.033v-.01l.001-.004.995.106-.995-.106a1 1 0 011.102-.888z" fill="#0F0F0F"/></svg>