<svg width="73" height="32" fill="none" xmlns="http://www.w3.org/2000/svg"><path d="M48.862 30.69h7.704v-2.671h-4.877v-13.31h-2.827V30.69zm-47.585 0h8.55v-2.671H4.083v-4.338h5.076V21.01H4.083v-3.63h5.566v-2.671H1.277V30.69zm11.549 0h2.827v-7.009h5.032v-2.762h-5.032v-3.54h5.567v-2.67h-8.394V30.69zM32.8 19.206c0-1.392-.446-2.534-1.315-3.401-.868-.89-1.937-1.325-3.228-1.325-1.27 0-2.36.434-3.25 1.279-.869.845-1.314 1.918-1.314 3.173-.023 2.9 2.382 4.087 4.163 4.977 1.27.64 2.293 1.507 2.293 2.694 0 .845-.823 1.644-1.803 1.644h-.245c-1.002 0-1.826-.822-1.826-1.803v-.731h-2.827v.73c0 1.233.445 2.284 1.336 3.174.913.868 2.004 1.301 3.273 1.301h.356c1.269 0 2.36-.433 3.25-1.301.891-.89 1.336-1.94 1.336-3.173.023-3.037-2.382-4.475-4.208-5.343-1.247-.662-2.27-1.438-2.27-2.374 0-.89.779-1.576 1.736-1.576.98 0 1.737.89 1.737 2.055h2.805zm12.602-.251c0-1.233-.445-2.283-1.336-3.15-.89-.89-1.959-1.325-3.228-1.325h-.356c-1.27 0-2.338.434-3.251 1.325-.89.867-1.336 1.917-1.336 3.15v7.466c0 1.233.445 2.283 1.336 3.173.913.89 1.981 1.325 3.25 1.325h.357c1.27 0 2.338-.434 3.228-1.302.89-.89 1.336-1.94 1.336-3.173v-7.489zm-2.805 7.626c0 .913-.846 1.666-1.826 1.666h-.223c-.98 0-1.826-.753-1.826-1.69v-7.739c0-.913.847-1.666 1.826-1.666h.245c.98 0 1.804.73 1.804 1.666v7.763zM57.013 1.846h13.875v12.615H57.012V1.846z" fill="#fff"/><path d="M71.766.936h-15.33v13.848h15.33V.936zM68.92 4.085c.47.469.711 1.087.711 1.84h-1.518c0-.63-.41-1.112-.939-1.112-.518 0-.94.37-.94.853 0 .506.555.926 1.23 1.284.987.47 2.288 1.248 2.276 2.89 0 .667-.241 1.235-.723 1.717a2.434 2.434 0 01-1.759.704h-.192a2.48 2.48 0 01-1.77-.704c-.483-.482-.724-1.05-.724-1.717v-.395h1.53v.395a.99.99 0 00.988.976h.132c.53 0 .976-.432.976-.89 0-.642-.554-1.11-1.24-1.457l-.015-.007c-.962-.481-2.25-1.125-2.238-2.685 0-.68.24-1.26.71-1.717a2.473 2.473 0 011.76-.692c.698 0 1.276.235 1.745.717zm-5.669 8.052h-4.625V3.492h4.529v1.445h-3.011V6.9h2.745v1.445h-2.745v2.346h3.107v1.445z" fill="#FFD200"/></svg>