<svg width="280" height="114" fill="none" xmlns="http://www.w3.org/2000/svg"><path d="M187.415 108.392h29.549V98.35h-18.703V48.304h-10.846v60.088zm-182.515 0h32.793V98.35H15.66V82.04h19.47V71.995H15.66V58.347h21.35V48.304H4.9v60.088zm44.294 0H60.04V82.039h19.3V71.652h-19.3V58.347h21.35V48.304H49.194v60.088zm76.61-43.177c0-5.237-1.708-9.529-5.038-12.79-3.331-3.348-7.43-4.98-12.383-4.98-4.868 0-9.053 1.632-12.469 4.808-3.33 3.176-5.038 7.21-5.038 11.931-.086 10.902 9.137 15.366 15.969 18.714 4.868 2.403 8.797 5.666 8.797 10.13 0 3.175-3.16 6.179-6.918 6.179h-.939c-3.843 0-7.003-3.09-7.003-6.78v-2.748H89.936v2.747c0 4.636 1.708 8.584 5.124 11.931 3.502 3.263 7.686 4.894 12.554 4.894h1.366c4.868 0 9.053-1.631 12.469-4.894 3.416-3.347 5.124-7.295 5.124-11.93.085-11.418-9.138-16.826-16.141-20.088-4.782-2.489-8.711-5.408-8.711-8.928 0-3.348 2.989-5.923 6.662-5.923 3.757 0 6.661 3.348 6.661 7.725h10.76v.002zm48.341-.945c0-4.635-1.707-8.584-5.123-11.846-3.416-3.347-7.515-4.978-12.383-4.978h-1.366c-4.868 0-8.968 1.63-12.469 4.978-3.416 3.262-5.124 7.211-5.124 11.846v28.07c0 4.636 1.708 8.585 5.124 11.933 3.501 3.348 7.6 4.979 12.469 4.979h1.366c4.868 0 8.967-1.631 12.383-4.894 3.416-3.348 5.123-7.296 5.123-11.931V64.27zm-10.76 28.671c0 3.434-3.246 6.266-7.002 6.266h-.855c-3.757 0-7.003-2.832-7.003-6.352V63.756c0-3.434 3.246-6.266 7.003-6.266h.939c3.759 0 6.918 2.747 6.918 6.266v29.185z" fill="#1E1E1F"/><path d="M218.678-.06h53.224v47.434h-53.224V-.059z" fill="#fff"/><path d="M275.266-3.482h-58.8v52.067h58.8V-3.482zm-10.914 11.84c1.802 1.765 2.726 4.087 2.726 6.92h-5.821c0-2.369-1.571-4.18-3.603-4.18-1.986 0-3.603 1.393-3.603 3.204 0 1.904 2.125 3.483 4.712 4.83 3.789 1.765 8.778 4.69 8.732 10.867 0 2.507-.924 4.643-2.771 6.454-1.849 1.765-4.113 2.647-6.746 2.647h-.74c-2.634 0-4.897-.882-6.791-2.647-1.849-1.81-2.773-3.947-2.773-6.454v-1.486h5.869v1.486c0 1.996 1.708 3.668 3.788 3.668h.508c2.033 0 3.743-1.625 3.743-3.343 0-2.415-2.126-4.18-4.759-5.48l-.056-.028c-3.69-1.808-8.63-4.228-8.584-10.096 0-2.554.924-4.736 2.727-6.455 1.848-1.718 4.111-2.6 6.745-2.6 2.678 0 4.896.882 6.697 2.693zm-21.745 30.278h-17.741V6.13h17.372v5.434h-11.55v7.383h10.532v5.433h-10.532v8.824h11.918v5.433h.001z" fill="#FFD200"/></svg>