<svg width="48" height="48" fill="none" xmlns="http://www.w3.org/2000/svg"><g clip-path="url(#clip0)"><path d="M43.713 37c1.08 0 2.014-.312 2.81-.927l-13.6-11.9a269.9 269.9 0 00-.941.593 63.457 63.457 0 01-2.478 1.534c-.634.368-1.478.743-2.531 1.125-1.054.384-2.036.575-2.947.575h-.053c-.911 0-1.893-.191-2.947-.575-1.054-.382-1.898-.757-2.531-1.125a63.991 63.991 0 01-2.478-1.535 156.08 156.08 0 00-.939-.595L1.477 36.073c.794.615 1.73.927 2.809.927h39.427zM2.706 16.68A13.858 13.858 0 010 14.64v18.105l11.986-10.488a942.78 942.78 0 00-9.28-5.577zm42.615 0a798.416 798.416 0 00-9.302 5.58l11.98 10.485V14.64c-.767.75-1.66 1.43-2.678 2.04z" fill="#FFD200"/><path d="M43.714 4H4.286c-1.376 0-2.433.406-3.174 1.218C.371 6.031 0 7.047 0 8.265c0 .984.492 2.05 1.474 3.2.981 1.148 2.026 2.05 3.133 2.706.607.376 2.438 1.489 5.492 3.34a1779.01 1779.01 0 017.017 4.278c.086.052.221.137.4.249.193.121.438.275.739.466.58.367 1.062.664 1.446.89.384.227.848.48 1.393.762a8.701 8.701 0 001.54.633c.483.14.93.21 1.34.21h.053c.41 0 .857-.07 1.34-.21.481-.14.995-.352 1.54-.633a29.454 29.454 0 001.393-.761 57.18 57.18 0 001.446-.891 173.13 173.13 0 011.139-.715l2.71-1.649 9.825-5.969c1.304-.796 2.393-1.758 3.268-2.882C47.562 10.164 48 8.984 48 7.75c0-1.031-.425-1.914-1.273-2.649C45.88 4.367 44.874 4 43.715 4z" fill="#FFD200"/><path d="M13.083 23c2.495 0 4.722.517 6.68 1.552 1.96 1.017 3.484 2.449 4.574 4.297C25.446 30.697 26 32.803 26 35.169c0 2.365-.434 4.222-1.303 5.57-.868 1.35-2.079 2.024-3.63 2.024-.888 0-1.627-.221-2.218-.665-.573-.462-.943-1.118-1.11-1.968a5.62 5.62 0 01-2.189 1.968c-.887.444-1.913.665-3.077.665-1.293 0-2.457-.305-3.492-.914a6.533 6.533 0 01-2.44-2.523c-.572-1.09-.859-2.319-.859-3.686 0-1.35.287-2.56.86-3.632.59-1.09 1.404-1.93 2.439-2.522 1.035-.61 2.199-.915 3.492-.915 1.072 0 2.042.204 2.91.61.87.388 1.59.97 2.163 1.746v-2.245h2.411v9.979c0 .684.148 1.192.444 1.524.296.315.674.472 1.136.472.813 0 1.442-.471 1.885-1.414.462-.96.693-2.31.693-4.047 0-2.051-.462-3.853-1.386-5.405-.924-1.57-2.226-2.79-3.908-3.659-1.663-.868-3.576-1.303-5.738-1.303-2.18 0-4.111.453-5.793 1.359a9.715 9.715 0 00-3.88 3.797c-.925 1.626-1.387 3.483-1.387 5.572 0 2.106.453 3.972 1.359 5.599a9.763 9.763 0 003.853 3.797c1.663.924 3.575 1.386 5.737 1.386.906 0 1.83-.102 2.772-.305a10.133 10.133 0 002.578-.915l.61 1.774c-.813.425-1.756.749-2.827.97a15.439 15.439 0 01-3.133.333c-2.531 0-4.786-.545-6.763-1.635-1.959-1.072-3.483-2.569-4.574-4.49C.545 40.148 0 37.976 0 35.556c0-2.421.545-4.583 1.635-6.487 1.11-1.903 2.652-3.39 4.63-4.462C8.26 23.536 10.532 23 13.082 23zm-.222 17.601c.906 0 1.71-.203 2.412-.61a4.324 4.324 0 001.69-1.718c.426-.758.638-1.636.638-2.633 0-.998-.212-1.867-.637-2.606-.407-.758-.97-1.33-1.691-1.718-.702-.407-1.506-.61-2.412-.61-1.404 0-2.54.453-3.409 1.358-.868.887-1.303 2.079-1.303 3.576 0 1.496.435 2.698 1.303 3.603.887.905 2.024 1.358 3.41 1.358z" fill="#0F0F0F"/></g><defs><clipPath id="clip0"><path fill="#fff" d="M0 0h48v48H0z"/></clipPath></defs></svg>