<svg width="32" height="32" fill="none" xmlns="http://www.w3.org/2000/svg"><path fill-rule="evenodd" clip-rule="evenodd" d="M30 4H2v24h28V4zM2 2a2 2 0 00-2 2v24a2 2 0 002 2h28a2 2 0 002-2V4a2 2 0 00-2-2H2z" fill="#fff"/><rect x="11" y="15" width="16" height="2" rx="1" fill="#fff"/><rect x="11" y="10" width="16" height="2" rx="1" fill="#fff"/><rect x="11" y="20" width="11.733" height="2" rx="1" fill="#fff"/><rect x="5" y="15" width="3" height="2" rx="1" fill="#fff"/><rect x="5" y="10" width="3" height="2" rx="1" fill="#fff"/><rect x="5" y="20" width="3" height="2" rx="1" fill="#fff"/></svg>