<svg width="33" height="32" fill="none" xmlns="http://www.w3.org/2000/svg"><g clip-path="url(#clip0)"><path fill-rule="evenodd" clip-rule="evenodd" d="M.776 22.501a2.62 2.62 0 001.87.794H5.08v2.885c0 .747.292 1.464.809 1.993a2.731 2.731 0 001.95.827h21.404a2.73 2.73 0 001.95-.827A2.858 2.858 0 0032 26.179V11.525c0-.748-.292-1.464-.809-1.993a2.731 2.731 0 00-1.95-.827h-1.317V5.707c0-.718-.28-1.406-.776-1.913A2.622 2.622 0 0025.277 3H2.647a2.62 2.62 0 00-1.87.794A2.743 2.743 0 000 5.708v14.88c0 .718.28 1.406.776 1.913zM5.08 11.475v5.615l-3.111 2.817V8.694l3.111 2.78zm13.026 9.92l-11.06-9.578v-.292a.82.82 0 01.232-.572.784.784 0 01.56-.237H29.24c.21 0 .411.086.56.237a.821.821 0 01.232.572v.283l-11.05 9.584-.001.001a.668.668 0 01-.877 0zM6.553 9.03a2.74 2.74 0 00-.677.514L1.968 6.1v-.393c0-.185.072-.361.199-.492.127-.13.3-.203.48-.204h22.63c.18 0 .353.074.48.204.128.13.2.308.2.492v2.997H7.837a2.7 2.7 0 00-1.284.325zm5.095 9.409L7.047 25.61V14.454l4.6 3.985zm-6.57 2.844H2.96l2.12-1.885v1.885zm18.83-1.524l4.668 7.229h-20.1l4.715-7.111 3.933 3.418c1.25.678 1.857.61 2.839 0l3.945-3.536zm1.622-1.37l4.502-3.934V25.61l-4.502-7.223z" fill="#fff"/></g><defs><clipPath id="clip0"><path fill="#fff" transform="translate(.5 .333)" d="M0 0h32v32H0z"/></clipPath></defs></svg>