<svg width="48" height="48" fill="none" xmlns="http://www.w3.org/2000/svg"><path d="M11.139 14.418v5.012h-.333A3.81 3.81 0 007 23.235v20.96A3.81 3.81 0 0010.806 48h29.247a3.81 3.81 0 003.805-3.806V23.225a3.81 3.81 0 00-3.805-3.805h-.098v-5.012C39.955 6.463 33.49 0 25.547 0c-7.945.01-14.408 6.473-14.408 14.418zm16.546 20.224c-.294.215-.373.421-.373.765.01 1.54.01 3.07.01 4.61.03.637-.294 1.265-.863 1.549-1.344.687-2.687-.275-2.687-1.55v-.01c0-1.54 0-3.08.01-4.619 0-.314-.07-.52-.344-.726-1.393-1.03-1.854-2.785-1.157-4.325.677-1.5 2.334-2.383 3.893-2.07 1.736.354 2.943 1.746 2.963 3.482 0 1.207-.481 2.187-1.452 2.894zm-10.24-20.224c0-4.473 3.64-8.102 8.102-8.102 4.472 0 8.101 3.639 8.101 8.102v5.012H17.445v-5.012z" fill="#FFD200"/><path d="M4.813 23c2.243 0 4.062 1.727 4.062 3.857v3.679H27v1.928h-2.031v6.572h-2.032v-6.572h-2.03v4.643h-2.032v-4.643h-10v3.679c0 2.13-1.819 3.857-4.063 3.857C2.57 40 .75 38.273.75 36.143v-9.286C.75 24.727 2.569 23 4.813 23zM2.78 36.143c0 1.065.91 1.928 2.031 1.928 1.122 0 2.032-.863 2.032-1.928v-9.286c0-1.065-.91-1.928-2.032-1.928-1.121 0-2.03.863-2.03 1.928v9.286z" fill="#000"/></svg>