<svg width="32" height="32" fill="none" xmlns="http://www.w3.org/2000/svg"><path fill-rule="evenodd" clip-rule="evenodd" d="M19.267 1.006a1 1 0 00-.22 1.988 11 11 0 019.716 9.704 1 1 0 001.987-.223A13 13 0 0019.267 1.006zm.081 5.346a1 1 0 00-.383 1.963 5.666 5.666 0 014.477 4.477 1 1 0 001.963-.383 7.666 7.666 0 00-6.057-6.057zM10.987 3.22a3.667 3.667 0 00-2.421-.887C5.09 2.167 1.59 1.667 1.09 4.876c-.505 2.928 1 11.171 7.476 17.873 5.988 6.199 14.302 8.184 16.839 8.184 3.156 0 4.018-2.035 4.018-3.708v-3.987a3.667 3.667 0 00-3.153-3.708l-.01-.001a16.122 16.122 0 01-3.526-.879 3.67 3.67 0 00-3.867.826l-.004.004-1.144 1.144a20.333 20.333 0 01-6.586-6.586l1.144-1.144.004-.004a3.667 3.667 0 00.826-3.867 16.118 16.118 0 01-.879-3.527l-.001-.01a3.666 3.666 0 00-1.24-2.266zM9.683 4.736a1.667 1.667 0 00-1.103-.403H4.57a1.667 1.667 0 00-1.658 1.81A25.387 25.387 0 006.85 17.256l.005.008a25 25 0 007.692 7.692l.008.005a25.387 25.387 0 0011.06 3.937 1.668 1.668 0 001.81-1.667v-4.029a1.667 1.667 0 00-1.43-1.691 18.137 18.137 0 01-3.96-.987l-.002-.001a1.667 1.667 0 00-1.757.373l-.002.002-1.69 1.69a1 1 0 01-1.2.161 22.334 22.334 0 01-8.376-8.375 1 1 0 01.163-1.201l1.69-1.691a1.667 1.667 0 00.374-1.757v-.002a18.12 18.12 0 01-.988-3.96 1.667 1.667 0 00-.563-1.027z" fill="#fff"/></svg>