<svg width="32" height="32" fill="none" xmlns="http://www.w3.org/2000/svg"><g clip-path="url(#clip0)" fill="#fff"><path fill-rule="evenodd" clip-rule="evenodd" d="M32.5 8.839h-5.806V32H.5V3.903A3.908 3.908 0 014.403 0h24.194A3.907 3.907 0 0132.5 3.903V8.84zM25.19 2a3.89 3.89 0 00-.497 1.903V30H2.5V3.904A1.906 1.906 0 014.404 2H25.19zm5.31 4.839V3.903a1.903 1.903 0 00-3.806 0V6.84H30.5z"/><path fill-rule="evenodd" clip-rule="evenodd" d="M19.597 23.806H7.21v-2.064h12.387v2.064z"/><path d="M13.403 6.935l1.39 4.28h4.5l-3.64 2.645 1.39 4.28-3.64-2.645-3.64 2.645 1.39-4.28-3.64-2.645h4.5l1.39-4.28z"/></g><defs><clipPath id="clip0"><path fill="#fff" transform="translate(.5)" d="M0 0h32v32H0z"/></clipPath></defs></svg>