<svg width="32" height="32" fill="none" xmlns="http://www.w3.org/2000/svg"><g clip-path="url(#clip0)"><path fill-rule="evenodd" clip-rule="evenodd" d="M4.053 2.537c-.143.78.006 1.612.4 2.463H2a2 2 0 00-2 2v7h2v16a2 2 0 002 2h24a2 2 0 002-2V14h2V7a2 2 0 00-2-2h-2.083c.393-.851.541-1.683.398-2.463C28.043 1.05 26.835.265 25.553.06c-2.283-.364-5.422.891-7.783 4.007a2 2 0 00-3.375-.262C12.06.882 9.033-.292 6.815.061c-1.282.204-2.49.99-2.762 2.476zm1.964.397c-.063.344.035 1.034.784 2.066h5.935c-1.95-2.354-4.267-3.075-5.621-2.86-.78.125-1.042.489-1.098.794zM19.632 5h5.936c.749-1.032.846-1.722.783-2.066-.055-.305-.317-.67-1.097-.794-1.355-.215-3.672.506-5.622 2.86zM17 7v5h13V7H17zm11 23H17V14h11v16zm-13 0V14H4v16h11zm0-18V7H2v5h13z" fill="#fff"/></g><defs><clipPath id="clip0"><path fill="#fff" d="M0 0h32v32H0z"/></clipPath></defs></svg>