<svg width="32" height="32" fill="none" xmlns="http://www.w3.org/2000/svg"><path fill-rule="evenodd" clip-rule="evenodd" d="M30 20H2v8h28v-8zM2 18a2 2 0 00-2 2v8a2 2 0 002 2h28a2 2 0 002-2v-8a2 2 0 00-2-2H2z" fill="#fff"/><rect x="12" y="23" width="15" height="2" rx="1" fill="#fff"/><rect x="5" y="23" width="3" height="2" rx="1" fill="#fff"/><path fill-rule="evenodd" clip-rule="evenodd" d="M30 4H2v8h28V4zM2 2a2 2 0 00-2 2v8a2 2 0 002 2h28a2 2 0 002-2V4a2 2 0 00-2-2H2z" fill="#fff"/><rect x="12" y="7" width="15" height="2" rx="1" fill="#fff"/><rect x="5" y="7" width="3" height="2" rx="1" fill="#fff"/><rect x="17" y="13" width="6" height="2" rx="1" transform="rotate(90 17 13)" fill="#fff"/></svg>