<svg width="48" height="48" fill="none" xmlns="http://www.w3.org/2000/svg"><path d="M48 14v6.82a6.726 6.726 0 01-1.873 3.294C44.798 25.41 43.027 26 41.143 26H29.667v-2.231c0-.994-.854-1.808-1.834-1.808h-3.666c-.98 0-1.834.814-1.834 1.808V26H10.857c-1.885 0-3.655-.591-4.984-1.886A6.713 6.713 0 014 20.822V14c0-1.666 1.344-3 2.986-3h38.028A2.992 2.992 0 0148 14zM27.514 30.977c.157 0 .32-.213.32-.372V24c0-.159-.163-.465-.32-.465h-3.028c-.156 0-.32.306-.32.465v6.605c0 .159.164.372.32.372h3.028zm19.648-5.303C45.552 27.241 43.416 28 41.143 28H29.667v2.921c0 .993-.854 1.807-1.834 1.807h-3.666c-.98 0-1.834-.814-1.834-1.807V28H10.857c-2.273 0-4.41-.759-6.019-2.326-.306-.298-.585-.877-.838-1.209V39.21C4 40.877 5.344 42 6.986 42h38.028C46.656 42 48 40.877 48 39.21V24.464c-.253.332-.532.911-.838 1.21zM33 4.888C32.417 4.296 31.537 4 30.773 4h-9.546c-.764 0-1.644.296-2.227.888-.583.592-1 1.367-1 2.142V9h3V7.72c0-.174.051-.72.5-.72h9c.448 0 .5.44.5.72V9h3V7.03c0-.775-.417-1.55-1-2.142z" fill="#FFD200"/><path fill-rule="evenodd" clip-rule="evenodd" d="M22 40H4a2 2 0 00-2 2v2a2 2 0 002 2h18a2 2 0 002-2v-2a2 2 0 00-2-2zM4 38a4 4 0 00-4 4v2a4 4 0 004 4h18a4 4 0 004-4v-2a4 4 0 00-4-4H4z" fill="#0F0F0F"/><circle cx="6" cy="43" r="2" fill="#0F0F0F"/><path fill-rule="evenodd" clip-rule="evenodd" d="M22 28H4a2 2 0 00-2 2v2a2 2 0 002 2h18a2 2 0 002-2v-2a2 2 0 00-2-2zM4 26a4 4 0 00-4 4v2a4 4 0 004 4h18a4 4 0 004-4v-2a4 4 0 00-4-4H4z" fill="#0F0F0F"/><circle cx="6" cy="31" r="2" fill="#0F0F0F"/></svg>