<svg width="32" height="32" fill="none" xmlns="http://www.w3.org/2000/svg"><path fill-rule="evenodd" clip-rule="evenodd" d="M11 4H2v9h9V4zM2 2a2 2 0 00-2 2v9a2 2 0 002 2h9a2 2 0 002-2V4a2 2 0 00-2-2H2z" fill="#fff"/><rect x="17" y="5" width="15" height="2" rx="1" fill="#fff"/><rect x="17" y="10" width="11" height="2" rx="1" fill="#fff"/><path fill-rule="evenodd" clip-rule="evenodd" d="M11 19H2v9h9v-9zm-9-2a2 2 0 00-2 2v9a2 2 0 002 2h9a2 2 0 002-2v-9a2 2 0 00-2-2H2z" fill="#fff"/><rect x="17" y="20" width="15" height="2" rx="1" fill="#fff"/><rect x="17" y="25" width="11" height="2" rx="1" fill="#fff"/></svg>