<svg width="48" height="48" fill="none" xmlns="http://www.w3.org/2000/svg"><path fill-rule="evenodd" clip-rule="evenodd" d="M14.07 44.758V3.242C14.07 1.458 15.589 0 17.443 0h22.255c1.854 0 3.372 1.46 3.372 3.242V44.76c0 1.785-1.518 3.242-3.372 3.241H17.442c-1.857 0-3.372-1.458-3.372-3.242zM32.13 3.12c.226 0 .408-.354.408-.571 0-.217-.184-.549-.407-.55h-7.12c-.226 0-.408.333-.408.55 0 .217.182.571.408.571h7.12zm8.195 2.02h-9.35L40.325 25V5.141zM28.365 46c1.15 0 2.08-.895 2.08-2s-.93-2-2.08-2c-1.148 0-2.08.895-2.08 2s.932 2 2.08 2z" fill="#FFD200"/><path d="M11.383 15.922C7.321 19.02 4.526 23.817 4.066 29.39c-.46 5.572 1.51 10.782 5.008 14.532l1.54-1.506A16.768 16.768 0 016.19 29.573c.406-4.925 2.876-9.164 6.466-11.901l-1.272-1.75z" fill="#0F0F0F"/><path d="M14.436 20.12c-2.929 2.234-4.944 5.692-5.275 9.71a13.68 13.68 0 003.61 10.477l1.54-1.507a11.473 11.473 0 01-3.027-8.787 11.376 11.376 0 014.424-8.143l-1.272-1.75z" fill="#0F0F0F"/><path d="M17.489 24.32a8.315 8.315 0 00-3.234 5.95 8.384 8.384 0 002.213 6.421l1.54-1.506a6.178 6.178 0 01-1.63-4.732 6.127 6.127 0 012.383-4.384l-1.272-1.75z" fill="#0F0F0F"/><circle cx="20.816" cy="30.6" r="2" fill="#0F0F0F"/></svg>