<svg width="48" height="48" fill="none" xmlns="http://www.w3.org/2000/svg"><g clip-path="url(#clip0)"><path d="M48.053 48H8V19.617h3.338v-3.53L21.2 9.285v6.804l9.406-6.804v10.373H33.7L35.614 0h5.38l1.543 19.657H48L48.053 48zm-5.995-21h-7.396v5h7.396v-5zm0 7.66h-7.396v5h7.396v-5z" fill="#FFD200"/><path fill-rule="evenodd" clip-rule="evenodd" d="M4 25H2v21h2V25zm-2-2a2 2 0 00-2 2v23h6V25a2 2 0 00-2-2H2z" fill="#0F0F0F"/><path fill-rule="evenodd" clip-rule="evenodd" d="M30 35v-6H6v6h24zm2-6a2 2 0 00-2-2H4v10h26a2 2 0 002-2v-6z" fill="#0F0F0F"/><path fill-rule="evenodd" clip-rule="evenodd" d="M11 32a1 1 0 011-1h12a1 1 0 110 2H12a1 1 0 01-1-1z" fill="#0F0F0F"/></g><defs><clipPath id="clip0"><path fill="#fff" d="M0 0h48v48H0z"/></clipPath></defs></svg>