<svg width="32" height="32" viewBox="0 0 32 32" fill="none" xmlns="http://www.w3.org/2000/svg">
<g clip-path="url(#clip0)">
<path fill-rule="evenodd" clip-rule="evenodd" d="M32.5 8.83871H26.6935V32H0.5V3.90264C0.50245 1.74824 2.24883 0.00244827 4.40323 9.53674e-07H28.5974C30.7518 0.00244827 32.4976 1.74883 32.5 3.90322V8.83871ZM25.1904 2C24.8674 2.5761 24.6934 3.23057 24.6935 3.90322V30H2.5V3.90358C2.50145 2.85266 3.3529 2.0013 4.40387 2H25.1904ZM30.5 6.83871V3.90322C30.5 2.8522 29.6478 2 28.5968 2C27.5457 2 26.6935 2.8522 26.6935 3.90322V6.83871H30.5Z" fill="white"/>
<path fill-rule="evenodd" clip-rule="evenodd" d="M19.5968 23.8065H7.20972V21.7419H19.5968V23.8065Z" fill="white"/>
<path d="M13.4033 6.93549L14.7938 11.2151H19.2937L15.6532 13.8601L17.0437 18.1397L13.4033 15.4948L9.76279 18.1397L11.1533 13.8601L7.51285 11.2151H12.0127L13.4033 6.93549Z" fill="white"/>
</g>
<defs>
<clipPath id="clip0">
<rect width="32" height="32" fill="white" transform="translate(0.5)"/>
</clipPath>
</defs>
</svg>
